<svg width="512" height="512" viewBox="0 0 512 512" fill="none" xmlns="http://www.w3.org/2000/svg">
<g opacity="0.5">
<path opacity="0.4" d="M345.408 42.6666H166.613C101.76 42.6666 64 80.64 64 145.707V366.08C64 432.213 101.76 469.333 166.613 469.333H345.408C411.307 469.333 448 432.213 448 366.08V145.707C448 80.64 411.307 42.6666 345.408 42.6666" fill="#B5C0C8"/>
<path fill-rule="evenodd" clip-rule="evenodd" d="M172.374 141.867V142.08C163.18 142.08 155.734 149.547 155.734 158.72C155.734 167.894 163.18 175.36 172.374 175.36H236.14C245.334 175.36 252.801 167.894 252.801 158.486C252.801 149.334 245.334 141.867 236.14 141.867H172.374ZM339.628 271.787H172.374C163.18 271.787 155.734 264.32 155.734 255.147C155.734 245.974 163.18 238.486 172.374 238.486H339.628C348.801 238.486 356.268 245.974 356.268 255.147C356.268 264.32 348.801 271.787 339.628 271.787ZM339.627 369.28H172.374C165.974 370.134 159.787 366.934 156.374 361.6C152.96 356.054 152.96 349.014 156.374 343.68C159.787 338.134 165.974 335.147 172.374 335.787H339.627C348.139 336.64 354.56 343.894 354.56 352.64C354.56 361.152 348.139 368.427 339.627 369.28Z" fill="#B5C0C8"/>
</g>
</svg>
